<svg id="ICON_24px_Camera" data-name="ICON / 24px / Camera" xmlns="http://www.w3.org/2000/svg" width="26" height="26" viewBox="0 0 26 26">
  <circle id="타원_1" data-name="타원 1" cx="13" cy="13" r="13" fill="#f6f6f9"/>
  <g id="Group" transform="translate(5 6.333)">
    <path id="Path" d="M2.666,13.334A2.667,2.667,0,0,1,0,10.666V4.445A2.667,2.667,0,0,1,2.666,1.778H4.445A1.777,1.777,0,0,1,6.222,0H9.778a1.777,1.777,0,0,1,1.778,1.778h1.778A2.667,2.667,0,0,1,16,4.445v6.222a2.667,2.667,0,0,1-2.666,2.667Z" fill="#979797"/>
    <path id="Oval" d="M0,2.666A2.667,2.667,0,1,1,2.666,5.334,2.666,2.666,0,0,1,0,2.666Z" transform="translate(5.333 4.444)" fill="#979797" stroke="#fff" stroke-width="1"/>
  </g>
</svg>
