<svg width="27" height="21" viewBox="0 0 27 21" fill="none" xmlns="http://www.w3.org/2000/svg">
<path d="M20.5074 3.00078C20.5823 3.01013 20.6575 3.01715 20.7319 3.02962C20.9256 3.06196 21.1118 3.11262 21.2513 3.26498C21.3819 3.4076 21.4618 3.57828 21.5261 3.75792C21.6161 4.01043 21.6702 4.27152 21.7112 4.53533C21.7809 4.98151 21.8144 5.43081 21.8347 5.88167C21.8518 6.26589 21.8577 6.6505 21.8557 7.03511C21.8542 7.35426 21.8507 7.67341 21.8409 7.99255C21.8296 8.3608 21.814 8.72944 21.7942 9.09729C21.7735 9.47606 21.7458 9.85443 21.7205 10.2332C21.7166 10.2889 21.7139 10.345 21.7049 10.4004C21.6897 10.497 21.7174 10.5882 21.7322 10.6813C21.7494 10.7885 21.7696 10.8953 21.7852 11.0028C21.7891 11.0293 21.7981 11.0336 21.8222 11.0344C22.0942 11.0457 22.365 11.0691 22.6343 11.11C23.0411 11.1715 23.4417 11.2631 23.8353 11.3843C23.8559 11.3905 23.877 11.3968 23.8961 11.4061C23.9506 11.4334 23.9736 11.4961 23.9522 11.553C23.9315 11.6068 23.8735 11.6392 23.8166 11.6232C23.612 11.5655 23.4082 11.5059 23.2009 11.4587C22.8903 11.3878 22.577 11.3333 22.2594 11.3021C22.1308 11.2896 22.0026 11.2795 21.8737 11.2733C21.8351 11.2713 21.8187 11.2768 21.8246 11.322C21.8526 11.5503 21.8663 11.7802 21.8744 12.0101C21.8846 12.2934 21.8764 12.5763 21.8565 12.8589C21.8405 13.0841 21.8152 13.3078 21.7782 13.5303C21.7731 13.5607 21.7809 13.577 21.8082 13.5926C21.9921 13.697 22.1671 13.8159 22.3366 13.9422C22.4001 13.9893 22.4157 14.0618 22.3748 14.1167C22.3319 14.174 22.2626 14.1814 22.1979 14.1339C22.0541 14.0275 21.9068 13.9262 21.7532 13.8346C21.7455 13.8299 21.7369 13.8264 21.7268 13.8214C21.6617 14.1417 21.5826 14.4558 21.4735 14.7605C21.3195 15.1895 21.0877 15.5765 20.8133 15.9385C20.3142 16.5978 19.6961 17.1219 18.9869 17.5416C18.296 17.9504 17.5552 18.2364 16.7802 18.4379C16.3609 18.547 15.9357 18.6292 15.5071 18.6888C15.1346 18.7407 14.7601 18.7769 14.3841 18.7968C14.2442 18.8042 14.1047 18.8131 13.9648 18.8135C13.9098 18.8221 13.8541 18.8151 13.7991 18.8178C13.7824 18.8186 13.7652 18.8131 13.7493 18.8225H13.0856C13.0697 18.8127 13.0521 18.8178 13.0358 18.8178C12.8522 18.8198 12.6683 18.8166 12.4851 18.8049C12.2556 18.7905 12.0261 18.7703 11.7974 18.7442C11.4443 18.704 11.0936 18.6514 10.7452 18.5809C10.1545 18.4613 9.57698 18.2964 9.01819 18.07C8.52875 17.8717 8.06153 17.6305 7.62314 17.3351C7.36985 17.1644 7.12864 16.9774 6.90068 16.7736C6.5375 16.449 6.21913 16.0858 5.94908 15.6805C5.72774 15.3485 5.54265 14.9978 5.42497 14.6143C5.35365 14.3817 5.28819 14.1479 5.24026 13.9094C5.2387 13.9016 5.23714 13.8942 5.23558 13.8864C5.22545 13.842 5.2235 13.8408 5.1857 13.8634C5.05321 13.9425 4.92618 14.0302 4.80226 14.1218C4.78706 14.1327 4.77264 14.1448 4.75667 14.1545C4.69549 14.1923 4.62184 14.181 4.57975 14.128C4.53572 14.0723 4.54196 13.9971 4.59963 13.9476C4.66587 13.8907 4.73952 13.8432 4.81083 13.7937C4.91176 13.7235 5.0158 13.6573 5.12258 13.5965C5.16037 13.5751 5.17401 13.5513 5.16661 13.5065C5.1292 13.2742 5.10582 13.0404 5.08828 12.8059C5.06841 12.535 5.06724 12.2642 5.07348 11.9934C5.07854 11.7759 5.09608 11.5585 5.11868 11.3418C5.12413 11.2896 5.12219 11.2888 5.06685 11.2888C4.92813 11.2892 4.79057 11.3052 4.65301 11.3196C4.28204 11.359 3.91691 11.4291 3.55568 11.5219C3.43644 11.5527 3.31759 11.585 3.20068 11.6224C3.16951 11.6325 3.13873 11.6442 3.10482 11.6392C3.04637 11.6306 3.01637 11.6014 3 11.5375V11.4813C3.00857 11.4128 3.05806 11.3878 3.11612 11.3707C3.4793 11.2623 3.84677 11.1727 4.22125 11.1127C4.49052 11.0694 4.76056 11.0355 5.03334 11.0278C5.05048 11.0274 5.06724 11.0242 5.08439 11.0219C5.13556 11.0152 5.16479 10.9858 5.17206 10.9338C5.18999 10.8088 5.21181 10.6844 5.23675 10.5609C5.24649 10.513 5.24727 10.4658 5.24299 10.4171C5.23091 10.2761 5.22077 10.1346 5.21025 9.99355C5.19817 9.83066 5.18726 9.66739 5.17674 9.5045C5.16856 9.3802 5.16154 9.25589 5.15492 9.13158C5.14596 8.96051 5.13972 8.78944 5.12842 8.61877C5.12335 8.5381 5.12141 8.45666 5.11985 8.376C5.11712 8.23415 5.1105 8.0927 5.10582 7.95125C5.09997 7.76264 5.10582 7.57404 5.09647 7.38621C5.08361 7.13994 5.08634 6.89366 5.0914 6.64816C5.09647 6.41319 5.09647 6.17782 5.10855 5.94324C5.13466 5.43003 5.167 4.91722 5.2574 4.40986C5.30728 4.13007 5.37002 3.85378 5.48575 3.59231C5.55512 3.43566 5.64357 3.2907 5.78113 3.18354C5.9144 3.07949 6.07222 3.03897 6.23588 3.01481C6.30953 3.0039 6.38435 3.01013 6.45839 3.00039H6.80443C6.85937 3.01286 6.91548 3.00624 6.97121 3.00818C7.18358 3.01598 7.39245 3.04988 7.60093 3.08573C8.09114 3.17029 8.57356 3.28953 9.05248 3.42319C9.53879 3.5588 10.0204 3.70999 10.4986 3.87093C10.9709 4.03031 11.44 4.19904 11.9049 4.37868C11.9454 4.39427 11.9844 4.39855 12.0277 4.39193C12.2463 4.35842 12.4657 4.33426 12.6858 4.3136C13.0241 4.28165 13.3631 4.27074 13.7025 4.27853C13.8888 4.28282 14.0754 4.29529 14.2613 4.31166C14.4971 4.3327 14.732 4.36076 14.9658 4.39583C14.9916 4.39972 15.0153 4.39427 15.0387 4.38492C15.3516 4.26567 15.6653 4.14877 15.9813 4.03732C16.3133 3.92042 16.6473 3.80897 16.9824 3.70103C17.2938 3.60088 17.6075 3.50736 17.9223 3.41929C18.4149 3.28174 18.9109 3.16094 19.4152 3.0756C19.6544 3.03507 19.8949 3 20.1392 3.00468C20.147 3.00468 20.1548 3.00585 20.1614 3C20.2768 3 20.3921 3 20.5074 3V3.00078Z" fill="#1A1A1A"/>
<path d="M13.7493 18.8219C13.8206 18.8069 13.8927 18.8124 13.9648 18.8128C13.9648 18.816 13.9648 18.8187 13.9644 18.8219H13.7493Z" fill="#98908B"/>
<path d="M21.4973 12.8954C21.4934 13.031 21.4735 13.1647 21.456 13.2987C21.4517 13.3307 21.4532 13.3638 21.4376 13.3958C21.2463 13.3057 21.0515 13.2266 20.85 13.1623C20.4915 13.0482 20.1256 12.9788 19.7488 12.9652C19.5571 12.9581 19.3665 12.9679 19.1771 12.9971C19.0855 13.0111 19.0466 13.0509 19.0485 13.1265C19.0501 13.1951 19.114 13.2488 19.1814 13.2372C19.6147 13.1608 20.0426 13.2029 20.467 13.3007C20.7779 13.3724 21.0749 13.483 21.362 13.6214C21.3901 13.635 21.4018 13.6471 21.3952 13.6798C21.3258 14.027 21.2444 14.3715 21.1173 14.7023C20.9537 15.1283 20.7105 15.5086 20.4245 15.8616C19.8922 16.5182 19.236 17.0217 18.4913 17.4129C17.8004 17.7761 17.0678 18.0216 16.3071 18.1872C15.9276 18.2698 15.5445 18.3322 15.1584 18.3762C14.8494 18.4117 14.5396 18.4351 14.229 18.4514C13.865 18.4705 13.5007 18.4721 13.1367 18.4659C12.8148 18.4604 12.4934 18.4421 12.1727 18.414C11.753 18.377 11.3356 18.3225 10.9218 18.2426C9.84784 18.0353 8.82884 17.6838 7.90608 17.0833C7.21401 16.6328 6.63027 16.0721 6.18409 15.3726C5.92885 14.9728 5.76246 14.5383 5.65374 14.0792C5.62179 13.9448 5.59217 13.81 5.56489 13.6744C5.55983 13.6498 5.56412 13.6385 5.58672 13.6276C5.94171 13.4562 6.31113 13.3287 6.70003 13.2582C6.95371 13.2122 7.20894 13.1927 7.46613 13.2025C7.56706 13.2064 7.6676 13.2161 7.76696 13.2352C7.83633 13.2488 7.89634 13.2118 7.9127 13.1452C7.92751 13.0836 7.88737 13.0213 7.81957 13.0061C7.70072 12.9796 7.57992 12.971 7.45873 12.9667C6.7916 12.9437 6.16344 13.1012 5.56178 13.3794C5.52943 13.3946 5.51852 13.3981 5.5119 13.3537C5.4437 12.8822 5.425 12.4087 5.44293 11.9333C5.45072 11.7205 5.46747 11.5078 5.49358 11.2962C5.4967 11.2708 5.50488 11.2662 5.52749 11.2669C6.25579 11.2907 6.9615 11.4185 7.62785 11.7252C7.72371 11.7692 7.81723 11.8179 7.90686 11.8741C7.97193 11.9146 8.04169 11.9021 8.07871 11.8448C8.11689 11.7856 8.09858 11.7147 8.03117 11.6734C7.79775 11.5292 7.5468 11.4228 7.28805 11.334C6.92136 11.2081 6.54493 11.1251 6.16032 11.0787C5.96392 11.055 5.76753 11.039 5.56996 11.0351C5.53528 11.0343 5.5271 11.023 5.53372 10.9926C5.53801 10.9727 5.54073 10.9529 5.54424 10.933C5.58983 10.9045 5.64283 10.9092 5.69232 10.9022C6.31152 10.8149 6.92097 10.6832 7.51874 10.4981C8.07208 10.3266 8.60633 10.1088 9.11876 9.83877C9.6343 9.56717 10.1167 9.2449 10.5621 8.86886C10.7764 8.68805 10.9822 8.49789 11.1747 8.29409C11.3734 8.08366 11.562 7.86427 11.7389 7.63436C12.0063 7.28638 12.2409 6.91775 12.4513 6.53313C12.4984 6.44702 12.5456 6.3609 12.5881 6.27244C12.5962 6.25568 12.6025 6.23776 12.6169 6.2249C12.6524 6.21711 12.6496 6.24711 12.6543 6.26543C12.6952 6.43026 12.7408 6.59392 12.7899 6.75603C12.9228 7.19598 13.0759 7.62891 13.2622 8.04937C13.3429 8.23174 13.427 8.41255 13.519 8.58908C13.7614 9.05396 14.04 9.49547 14.3646 9.90852C14.5867 10.1907 14.8342 10.449 15.0921 10.6972C15.2063 10.8071 15.3287 10.9088 15.4526 11.0078C15.4705 11.0222 15.4923 11.0331 15.5009 11.0565C15.497 11.0752 15.4818 11.0842 15.4682 11.0943C15.4136 11.1356 15.3614 11.18 15.3111 11.2264C15.2297 11.3012 15.2001 11.3951 15.2328 11.5019C15.2651 11.6067 15.3388 11.6691 15.4483 11.6835C15.7971 11.7291 16.145 11.7782 16.4899 11.8464C16.7112 11.89 16.9322 11.9356 17.1446 12.0151C17.1781 12.0276 17.2116 12.0412 17.2416 12.0603C17.2911 12.0923 17.3452 12.1094 17.4033 12.1164C17.6204 12.2002 17.8382 12.2817 18.0599 12.3526C18.0747 12.3573 18.0899 12.3619 18.0985 12.3764C18.102 12.3962 18.0852 12.4025 18.0736 12.4118C18.0061 12.4675 17.989 12.5357 18.0237 12.616C18.0837 12.7547 18.1511 12.8896 18.2146 13.0263C18.2809 13.169 18.3487 13.3104 18.4141 13.4534C18.4675 13.5699 18.5922 13.6054 18.6818 13.5279C18.729 13.4869 18.7485 13.4351 18.7325 13.3728C18.7212 13.3287 18.7002 13.2882 18.6807 13.2481C18.5645 13.0069 18.4539 12.7633 18.3385 12.5221C18.3272 12.4983 18.2957 12.4714 18.3296 12.4407C18.4282 12.4574 18.5225 12.4898 18.6191 12.5151C19.04 12.6254 19.4663 12.7084 19.8969 12.7684C20.1081 12.798 20.3204 12.819 20.5328 12.8393C20.6563 12.8514 20.781 12.8564 20.9053 12.8623C21.0873 12.8705 21.2689 12.8814 21.4513 12.8802C21.4684 12.8802 21.486 12.8806 21.4988 12.895L21.4973 12.8954Z" fill="#FEFEFE"/>
<path d="M15.4963 11.0541C15.3723 10.9648 15.2585 10.8635 15.1455 10.7614C14.4426 10.1259 13.9001 9.3695 13.4734 8.52702C13.1106 7.81118 12.8449 7.05949 12.6454 6.28326C12.6403 6.26299 12.6415 6.23922 12.6232 6.22364C12.6185 6.18545 12.6423 6.15583 12.6571 6.12505C12.8542 5.71627 13.0136 5.29308 13.152 4.86132C13.1687 4.80949 13.1839 4.75728 13.1991 4.70506C13.2049 4.68441 13.2085 4.66181 13.2275 4.64778C13.5373 4.63959 13.8467 4.64661 14.1558 4.67194C14.4706 4.69766 14.7835 4.73546 15.0949 4.78806C15.7145 4.89327 16.3212 5.04837 16.9108 5.26698C17.5877 5.51793 18.2248 5.8437 18.8062 6.27351C19.5964 6.85725 20.2145 7.58556 20.6501 8.46818C20.9319 9.03906 21.1329 9.63799 21.283 10.2552C21.3422 10.498 21.389 10.7435 21.4275 10.9906C21.4334 11.028 21.4264 11.0338 21.3913 11.035C20.7659 11.0525 20.1556 11.1558 19.5668 11.3724C19.3494 11.4523 19.1378 11.5459 18.9398 11.6678C18.9114 11.6854 18.8857 11.7048 18.8724 11.7364C18.8533 11.7828 18.8662 11.8358 18.9032 11.8685C18.9422 11.9032 18.9987 11.9094 19.0458 11.8798C19.1951 11.7863 19.3537 11.7115 19.5166 11.6452C19.8762 11.4991 20.2488 11.4017 20.6318 11.3405C20.8933 11.2988 21.1563 11.2785 21.4205 11.2672C21.447 11.2661 21.4665 11.2649 21.4704 11.3023C21.509 11.6631 21.532 12.0252 21.525 12.3879C21.5218 12.5575 21.5187 12.727 21.4969 12.8953C21.1766 12.8957 20.8563 12.8805 20.5371 12.854C20.1689 12.8236 19.8022 12.7761 19.4382 12.7102C19.0606 12.642 18.6877 12.5543 18.3191 12.4476C18.3051 12.4499 18.2957 12.4417 18.2867 12.4335C18.2408 12.3915 18.1874 12.3747 18.1258 12.386C18.1153 12.3879 18.1044 12.3887 18.0954 12.3802C17.8772 12.3057 17.6582 12.2321 17.4443 12.1452C17.4298 12.1393 17.4162 12.1323 17.4022 12.1257C17.4076 12.1023 17.4283 12.1078 17.4439 12.1043C17.5499 12.0817 17.6192 12.0174 17.6473 11.9141C17.6757 11.8077 17.634 11.6971 17.5467 11.637C17.4271 11.5544 17.2911 11.5088 17.1536 11.4683C16.8843 11.3888 16.6096 11.3354 16.3329 11.2879C16.3048 11.2832 16.2604 11.2887 16.2573 11.2567C16.2538 11.2244 16.299 11.2228 16.3247 11.2123C16.5874 11.1044 16.8617 11.0443 17.1426 11.0108C17.2307 11.0003 17.3188 10.9933 17.4076 10.9913C17.5265 10.9886 17.6317 10.8955 17.65 10.7821C17.6714 10.6488 17.6044 10.53 17.4844 10.4863C17.4575 10.4766 17.4298 10.4754 17.4018 10.475C17.0483 10.4731 16.7054 10.5401 16.3687 10.6422C16.0765 10.7306 15.8014 10.8569 15.5508 11.0334C15.5348 11.0447 15.5189 11.0595 15.4959 11.0541H15.4963Z" fill="#F0BA61"/>
<path d="M13.2275 4.64746C13.0864 5.14274 12.9064 5.62321 12.6874 6.08927C12.6663 6.13408 12.6445 6.1789 12.6235 6.22371C12.3939 6.68898 12.1274 7.13205 11.8176 7.54861C11.2873 8.26211 10.6548 8.86923 9.92027 9.36958C9.07623 9.94435 8.1523 10.343 7.17032 10.6123C6.65126 10.7545 6.12364 10.8558 5.59056 10.9287C5.57497 10.9306 5.55939 10.9314 5.54419 10.933C5.58705 10.6559 5.64395 10.382 5.71331 10.1107C5.7928 9.80095 5.8875 9.49583 5.99855 9.19578C6.09636 8.93197 6.20586 8.67322 6.33368 8.42227C6.50007 8.09494 6.69101 7.78281 6.91352 7.49055C7.03081 7.33624 7.15668 7.18894 7.288 7.04554C7.40607 6.91695 7.53038 6.79537 7.65897 6.67807C7.84719 6.507 8.04631 6.34918 8.25362 6.2015C8.6094 5.9486 8.9866 5.73349 9.38018 5.54684C9.62139 5.43227 9.86883 5.33174 10.1202 5.24133C10.4721 5.1143 10.8306 5.00986 11.1945 4.92413C11.4443 4.86529 11.696 4.81541 11.9497 4.77605C12.1344 4.74722 12.3195 4.72072 12.5054 4.70163C12.6457 4.68721 12.7856 4.67318 12.9262 4.66422C13.0268 4.65798 13.1269 4.6498 13.2279 4.64785L13.2275 4.64746Z" fill="#434344"/>
<path d="M11.2747 4.54182C11.1574 4.57027 11.0397 4.59677 10.9232 4.62716C10.5397 4.72614 10.1629 4.84421 9.7935 4.98722C9.52385 5.09205 9.25964 5.20856 9.00168 5.33871C8.60732 5.53784 8.23284 5.77009 7.88057 6.03663C7.70639 6.16834 7.53883 6.30901 7.37867 6.45865C7.268 6.56191 7.15928 6.66674 7.05641 6.77663C6.85806 6.98822 6.67452 7.21267 6.50657 7.4496C6.27822 7.77108 6.08611 8.11361 5.91855 8.47017C5.79891 8.72463 5.69526 8.98571 5.60525 9.25225C5.5881 9.30369 5.56862 9.35435 5.54718 9.41319C5.54173 9.39292 5.53393 9.37928 5.53471 9.36565C5.539 9.29239 5.52653 9.21991 5.5238 9.14704C5.51562 8.92531 5.50276 8.70358 5.49341 8.48186C5.48873 8.36729 5.48406 8.25234 5.47977 8.13777C5.47236 7.93592 5.47236 7.73328 5.46574 7.53143C5.45366 7.17799 5.45989 6.82456 5.46184 6.47112C5.46262 6.35343 5.46223 6.23497 5.46925 6.1169C5.47743 5.97895 5.48133 5.84101 5.48834 5.70306C5.49652 5.53121 5.50899 5.35976 5.52575 5.18869C5.5542 4.90111 5.58654 4.61352 5.64694 4.33023C5.69487 4.10382 5.75332 3.88132 5.85542 3.67128C5.93569 3.50567 6.06 3.41409 6.23925 3.38292C6.42902 3.35019 6.62036 3.3459 6.81052 3.3572C7.23098 3.38292 7.64482 3.45696 8.05593 3.54892C8.46275 3.64011 8.8649 3.74805 9.2651 3.86456C9.72102 3.99744 10.1719 4.14591 10.6212 4.29944C10.8398 4.37387 11.0568 4.45337 11.2747 4.53091C11.2747 4.53442 11.2751 4.53793 11.2754 4.54143L11.2747 4.54182Z" fill="#434344"/>
<path d="M21.4222 9.423C21.3065 9.08709 21.1806 8.7582 21.0298 8.43906C20.7325 7.80973 20.3494 7.23846 19.867 6.735C19.3363 6.18165 18.7241 5.73898 18.0464 5.38359C17.3146 4.99976 16.5395 4.73556 15.7352 4.55319C15.7169 4.5489 15.699 4.54501 15.6721 4.53877C15.8179 4.48617 15.9554 4.43512 16.0938 4.38641C16.7305 4.16273 17.3715 3.95309 18.0219 3.77228C18.5109 3.63628 19.0039 3.51548 19.5054 3.43248C19.8218 3.37987 20.1402 3.34324 20.4617 3.3561C20.5984 3.36156 20.7336 3.37909 20.8646 3.4239C20.9538 3.4543 21.0127 3.51899 21.0606 3.59536C21.1748 3.77656 21.2336 3.97959 21.2827 4.18533C21.3544 4.48344 21.3945 4.787 21.4245 5.09173C21.4608 5.45724 21.4803 5.82354 21.492 6.19062C21.4974 6.36792 21.4959 6.54561 21.5009 6.72292C21.5103 7.05297 21.4998 7.38303 21.4943 7.71309C21.4873 8.12537 21.4694 8.53726 21.4487 8.94915C21.4409 9.10736 21.4308 9.26518 21.4218 9.423H21.4222Z" fill="#F0BB61"/>
<path d="M13.5337 12.8565C14.096 12.8565 14.6587 12.86 15.221 12.8545C15.3859 12.853 15.5039 12.9235 15.6002 13.0447C15.6906 13.1585 15.7338 13.2929 15.7487 13.4355C15.7939 13.8692 15.6809 14.2679 15.4681 14.6404C15.1852 15.1361 14.7967 15.5261 14.2858 15.7868C14.0306 15.917 13.7594 15.9906 13.4694 15.9778C13.2138 15.9665 12.9734 15.8944 12.7501 15.7732C12.1126 15.4268 11.6602 14.9163 11.4108 14.2328C11.3184 13.9803 11.281 13.7173 11.3114 13.4484C11.3359 13.2329 11.41 13.0404 11.6025 12.9149C11.6633 12.8752 11.7295 12.8549 11.8043 12.8553C12.3807 12.8569 12.957 12.8561 13.5337 12.8561V12.8565Z" fill="#1B1C1C"/>
<path d="M10.6973 11.2498C10.5687 11.1886 10.4358 11.1442 10.2998 11.1079C10.0496 11.0417 9.79516 11.0062 9.53642 10.9945C9.39185 10.9879 9.27806 10.8597 9.28391 10.7171C9.28975 10.5678 9.40744 10.4486 9.55473 10.4533C10.2308 10.4751 10.8641 10.6399 11.4275 11.0288C11.502 11.0803 11.5709 11.1383 11.6387 11.1979C11.7334 11.2805 11.7732 11.3815 11.7338 11.5027C11.6933 11.6281 11.5963 11.6807 11.4692 11.6959C11.002 11.7528 10.5371 11.8226 10.08 11.9383C9.94168 11.9734 9.80608 12.0135 9.67982 12.0852C9.55512 12.1558 9.3973 12.1055 9.32287 11.982C9.25 11.8616 9.28157 11.703 9.39769 11.6207C9.5146 11.5381 9.64904 11.4937 9.78425 11.4528C10.0831 11.3624 10.3898 11.307 10.6969 11.2498H10.6973Z" fill="#1B1B1B"/>
<path d="M15.4963 11.0533C15.6439 10.9527 15.7959 10.8592 15.9588 10.7844C16.2698 10.6414 16.5959 10.5506 16.9338 10.4988C17.0861 10.4754 17.2389 10.4582 17.3932 10.459C17.5495 10.4598 17.6664 10.5736 17.6683 10.7271C17.6703 10.8818 17.5534 10.9983 17.3955 11.0038C17.0168 11.0174 16.6505 11.0915 16.2986 11.2337C16.285 11.2391 16.2694 11.2415 16.2553 11.2594C16.3391 11.2746 16.4198 11.2882 16.4997 11.3034C16.7939 11.3603 17.0877 11.418 17.3679 11.5279C17.4259 11.5505 17.4817 11.5778 17.5343 11.6113C17.6403 11.6791 17.6886 11.7905 17.6636 11.9078C17.6391 12.0212 17.5448 12.1031 17.4205 12.119C17.4146 12.1198 17.4092 12.1225 17.4033 12.1245C17.3593 12.1264 17.316 12.1159 17.2798 12.0941C17.1376 12.0091 16.9794 11.9694 16.8215 11.9308C16.479 11.8474 16.1314 11.7894 15.7823 11.7414C15.6654 11.7255 15.5477 11.7134 15.4316 11.6935C15.3248 11.6752 15.2508 11.6101 15.2196 11.5061C15.1865 11.397 15.2133 11.2988 15.2975 11.2212C15.3614 11.1624 15.4304 11.109 15.497 11.0529L15.4963 11.0533Z" fill="#1B1B1B"/>
<path d="M18.0963 12.3805C18.1855 12.354 18.2596 12.3786 18.32 12.448C18.3609 12.5555 18.415 12.6572 18.4634 12.7616C18.5506 12.9495 18.6395 13.1361 18.7272 13.3236C18.7735 13.4229 18.74 13.5223 18.6449 13.5679C18.5608 13.608 18.4575 13.5718 18.4135 13.4798C18.2763 13.1919 18.1407 12.9035 18.0067 12.614C17.9665 12.5271 17.9985 12.4519 18.0959 12.3809L18.0963 12.3805Z" fill="#E9989B"/>
<path d="M8.89412 12.293C9.02349 12.293 9.10766 12.4208 9.05311 12.5381C8.91984 12.8241 8.78579 13.1101 8.65057 13.3954C8.59173 13.5197 8.44287 13.5403 8.35441 13.4386C8.30648 13.3833 8.30181 13.3167 8.33064 13.2547C8.4643 12.9652 8.60147 12.6776 8.73825 12.3896C8.76903 12.3245 8.82125 12.2906 8.8949 12.2934L8.89412 12.293Z" fill="#E9989B"/>
<path d="M9.47498 12.4521C9.59968 12.4521 9.67801 12.5609 9.63904 12.684C9.54785 12.9728 9.45589 13.2611 9.36315 13.5491C9.33353 13.6411 9.23182 13.6913 9.1422 13.6617C9.0479 13.6309 8.9988 13.5374 9.0288 13.4427C9.12155 13.1528 9.21468 12.8633 9.30859 12.5741C9.33509 12.4919 9.3912 12.4525 9.47537 12.4525L9.47498 12.4521Z" fill="#E9989B"/>
<path d="M17.8644 13.7456C17.7857 13.7452 17.7264 13.7054 17.7019 13.6302C17.6064 13.338 17.5121 13.0457 17.4194 12.753C17.3901 12.6603 17.4412 12.5679 17.5324 12.5372C17.6228 12.5064 17.7167 12.5496 17.751 12.6435C17.7864 12.7414 17.8161 12.8411 17.8476 12.9401C17.9065 13.1232 17.9649 13.3068 18.0245 13.4895C18.0382 13.5316 18.0471 13.5741 18.0366 13.6174C18.0175 13.6968 17.9497 13.7463 17.8644 13.7456V13.7456Z" fill="#E9989B"/>
<path d="M10.3112 12.7375C10.3053 12.7987 10.2812 12.8763 10.2633 12.9546C10.2196 13.1451 10.176 13.3357 10.1312 13.5258C10.1105 13.6135 10.0509 13.6661 9.97022 13.67C9.888 13.6739 9.82098 13.6299 9.79292 13.5527C9.77538 13.5048 9.7863 13.4573 9.79721 13.4105C9.85293 13.1685 9.90865 12.9265 9.96594 12.6849C9.9975 12.5509 10.137 12.4967 10.2449 12.5758C10.2921 12.6105 10.3131 12.6588 10.3112 12.7371V12.7375Z" fill="#E9989B"/>
<path d="M17.2751 13.5579C17.2759 13.6631 17.2193 13.7344 17.1383 13.7449C17.0315 13.759 16.9532 13.7067 16.9294 13.6046C16.8846 13.4114 16.841 13.2177 16.7965 13.0244C16.7825 12.964 16.7677 12.9036 16.7541 12.8432C16.7315 12.7431 16.7868 12.646 16.8788 12.6246C16.9809 12.6004 17.0713 12.6581 17.0958 12.7637C17.1543 13.0143 17.2127 13.2652 17.2704 13.5158C17.2747 13.5337 17.2747 13.5528 17.2751 13.5579Z" fill="#E9989B"/>
<path d="M13.535 13.0928C14.0942 13.0928 14.6534 13.0947 15.2126 13.0908C15.3115 13.0901 15.3755 13.1329 15.4257 13.207C15.5153 13.3398 15.5294 13.4918 15.5239 13.6453C15.5087 14.0935 15.3287 14.4793 15.0629 14.8292C14.8213 15.1468 14.5283 15.4059 14.1671 15.5824C13.9391 15.6939 13.701 15.7621 13.4434 15.7406C13.1504 15.7165 12.8897 15.6039 12.65 15.4414C12.1688 15.1148 11.8157 14.685 11.6252 14.1309C11.5469 13.9033 11.5169 13.6683 11.5531 13.4283C11.5691 13.3219 11.6061 13.2237 11.6871 13.1477C11.7257 13.1115 11.7686 13.0916 11.8251 13.0916C12.3952 13.0932 12.9653 13.0924 13.5354 13.0924L13.535 13.0928Z" fill="#DE6673"/>
</svg>
