<svg width="17" height="12" viewBox="0 0 17 12" fill="none" xmlns="http://www.w3.org/2000/svg">
<path d="M13.2222 4.5V1C13.2222 0.45 12.7972 0 12.2778 0H0.944444C0.425 0 0 0.45 0 1V11C0 11.55 0.425 12 0.944444 12H12.2778C12.7972 12 13.2222 11.55 13.2222 11V7.5L15.385 9.79C15.98 10.42 17 9.97 17 9.08V2.91C17 2.02 15.98 1.57 15.385 2.2L13.2222 4.5ZM9.44444 7H7.55556V9C7.55556 9.55 7.13056 10 6.61111 10C6.09167 10 5.66667 9.55 5.66667 9V7H3.77778C3.25833 7 2.83333 6.55 2.83333 6C2.83333 5.45 3.25833 5 3.77778 5H5.66667V3C5.66667 2.45 6.09167 2 6.61111 2C7.13056 2 7.55556 2.45 7.55556 3V5H9.44444C9.96389 5 10.3889 5.45 10.3889 6C10.3889 6.55 9.96389 7 9.44444 7Z" fill="#323232"/>
</svg>
