<svg width="19" height="19" viewBox="0 0 19 19" fill="none" xmlns="http://www.w3.org/2000/svg">
<path d="M14.5 15.3333H4.5C4.04167 15.3333 3.66667 14.9583 3.66667 14.5V4.5C3.66667 4.04167 4.04167 3.66667 4.5 3.66667H8.66667C9.125 3.66667 9.5 3.29167 9.5 2.83333C9.5 2.375 9.125 2 8.66667 2H3.66667C2.74167 2 2 2.75 2 3.66667V15.3333C2 16.25 2.75 17 3.66667 17H15.3333C16.25 17 17 16.25 17 15.3333V10.3333C17 9.875 16.625 9.5 16.1667 9.5C15.7083 9.5 15.3333 9.875 15.3333 10.3333V14.5C15.3333 14.9583 14.9583 15.3333 14.5 15.3333ZM11.1667 2.83333C11.1667 3.29167 11.5417 3.66667 12 3.66667H14.1583L6.55 11.275C6.225 11.6 6.225 12.125 6.55 12.45C6.875 12.775 7.4 12.775 7.725 12.45L15.3333 4.84167V7C15.3333 7.45833 15.7083 7.83333 16.1667 7.83333C16.625 7.83333 17 7.45833 17 7V2.83333C17 2.375 16.625 2 16.1667 2H12C11.5417 2 11.1667 2.375 11.1667 2.83333Z" fill="#CFCECE"/>
</svg>
