<svg width="15" height="12" viewBox="0 0 15 12" fill="none" xmlns="http://www.w3.org/2000/svg">
<path d="M13.5 1.33333H11.1225L10.1925 0.433333C9.915 0.16 9.51 0 9.09 0H5.91C5.49 0 5.085 0.16 4.8 0.433333L3.8775 1.33333H1.5C0.675 1.33333 0 1.93333 0 2.66667V10.6667C0 11.4 0.675 12 1.5 12H13.5C14.325 12 15 11.4 15 10.6667V2.66667C15 1.93333 14.325 1.33333 13.5 1.33333ZM7.5 10C5.43 10 3.75 8.50667 3.75 6.66667C3.75 4.82667 5.43 3.33333 7.5 3.33333C9.57 3.33333 11.25 4.82667 11.25 6.66667C11.25 8.50667 9.57 10 7.5 10ZM7.5 4L6.5625 5.83333L4.5 6.66667L6.5625 7.5L7.5 9.33333L8.4375 7.5L10.5 6.66667L8.4375 5.83333L7.5 4Z" fill="#323232"/>
</svg>
